<svg width="96" height="96" xmlns="http://www.w3.org/2000/svg" xmlns:xlink="http://www.w3.org/1999/xlink" overflow="hidden"><defs><clipPath id="clip0"><rect x="0" y="0" width="96" height="96"/></clipPath></defs><g clip-path="url(#clip0)"><path d="M53.05 79 47.05 79C47.072 61.5017 61.2517 47.322 78.75 47.3L78.75 53.3C64.5631 53.3165 53.0665 64.8131 53.05 79Z" fill="#FF0000"/><path d="M37.4 79 31.4 79C31.4496 52.8764 52.6263 31.7175 78.75 31.69L78.75 37.69C55.94 37.7175 37.4496 56.1901 37.4 79Z" fill="#FF0000"/><path d="M21.75 79 15.75 79C15.7886 44.2221 43.9721 16.0386 78.75 16L78.75 22C47.2835 22.0331 21.7831 47.5335 21.75 79Z" fill="#FF0000"/><path d="M78.75 71.21C78.75 75.5344 75.2444 79.04 70.92 79.04 66.5956 79.04 63.09 75.5344 63.09 71.21 63.09 66.8856 66.5956 63.38 70.92 63.38 75.2444 63.38 78.75 66.8856 78.75 71.21Z" fill="#FF0000"/></g></svg>